<?xml version="1.0" encoding="UTF-8"?>
<!DOCTYPE svg PUBLIC "-//W3C//DTD SVG 1.1//EN" "http://www.w3.org/Graphics/SVG/1.1/DTD/svg11.dtd">
<svg xmlns="http://www.w3.org/2000/svg" version="1.1" width="1096px" height="600px" style="shape-rendering:geometricPrecision; text-rendering:geometricPrecision; image-rendering:optimizeQuality; fill-rule:evenodd; clip-rule:evenodd" xmlns:xlink="http://www.w3.org/1999/xlink">
<g><path style="opacity:1" fill="#e0e0e0" d="M 594.5,325.5 C 594.935,322.387 593.935,321.721 591.5,323.5C 590.287,323.253 589.62,322.586 589.5,321.5C 590.688,322.684 591.855,322.684 593,321.5C 610.932,288.733 605.432,260.566 576.5,237C 545.375,220.31 517.875,224.81 494,250.5C 473.876,282.967 478.043,311.8 506.5,337C 512.17,340.67 518.17,343.503 524.5,345.5C 526.515,346.924 528.848,347.59 531.5,347.5C 540.191,348.991 548.858,348.657 557.5,346.5C 559.167,346.833 560.167,347.833 560.5,349.5C 556.418,350.689 552.418,351.689 548.5,352.5C 516.071,353.037 493.571,338.37 481,308.5C 471.988,271.361 484.488,244.195 518.5,227C 546.956,217.912 571.456,224.079 592,245.5C 607.982,265.39 611.648,287.39 603,311.5C 600.908,316.697 598.074,321.364 594.5,325.5 Z"/></g>
<g><path style="opacity:1" fill="#151310" d="M 603.5,321.5 C 601.588,323.657 599.921,325.991 598.5,328.5C 598.53,327.503 598.03,326.836 597,326.5C 595.862,326.989 594.695,327.322 593.5,327.5C 593.833,326.833 594.167,326.167 594.5,325.5C 598.074,321.364 600.908,316.697 603,311.5C 611.648,287.39 607.982,265.39 592,245.5C 571.456,224.079 546.956,217.912 518.5,227C 484.488,244.195 471.988,271.361 481,308.5C 493.571,338.37 516.071,353.037 548.5,352.5C 549.68,354.913 551.68,355.913 554.5,355.5C 528.592,359.974 506.926,352.308 489.5,332.5C 471.466,308.183 468.632,282.183 481,254.5C 500.726,223.252 528.559,212.419 564.5,222C 599.363,236.229 614.863,262.062 611,299.5C 609.346,307.137 606.846,314.47 603.5,321.5 Z"/></g>
<g><path style="opacity:1" fill="#080706" d="M 589.5,321.5 C 584.758,313.017 580.258,304.351 576,295.5C 573.901,293.203 571.401,291.536 568.5,290.5C 568.167,289.833 567.833,289.167 567.5,288.5C 569.698,288.88 571.365,288.213 572.5,286.5C 581.895,281.702 585.395,274.035 583,263.5C 578.395,256.611 571.895,252.944 563.5,252.5C 559.317,251.189 554.984,251.189 550.5,252.5C 550.957,253.298 551.624,253.631 552.5,253.5C 570.214,256.44 575.047,266.106 567,282.5C 562.463,286.361 557.296,288.361 551.5,288.5C 550.624,288.369 549.957,288.702 549.5,289.5C 552.086,290.48 554.753,290.813 557.5,290.5C 559.836,292.004 561.669,294.004 563,296.5C 567,305.167 571,313.833 575,322.5C 579.967,328.399 586.134,330.065 593.5,327.5C 594.695,327.322 595.862,326.989 597,326.5C 598.03,326.836 598.53,327.503 598.5,328.5C 594.375,334.459 589.375,339.626 583.5,344C 581.866,344.494 580.199,344.66 578.5,344.5C 577.833,344.167 577.167,343.833 576.5,343.5C 575.921,340.669 574.588,338.336 572.5,336.5C 565.392,322.223 558.059,308.057 550.5,294C 547.774,291.97 544.774,290.47 541.5,289.5C 556.732,285.03 561.899,275.364 557,260.5C 553.218,256.686 548.718,254.186 543.5,253C 531.486,252.167 519.486,252.334 507.5,253.5C 509.969,254.168 512.302,254.835 514.5,255.5C 514.5,277.167 514.5,298.833 514.5,320.5C 512.167,320.5 509.833,320.5 507.5,320.5C 507.5,321.5 507.5,322.5 507.5,323.5C 517.227,324.139 526.56,323.472 535.5,321.5C 533.393,320.532 531.059,320.198 528.5,320.5C 528.5,310.5 528.5,300.5 528.5,290.5C 529.833,290.5 531.167,290.5 532.5,290.5C 535.112,291.277 536.945,292.944 538,295.5C 544.259,308.353 550.759,321.02 557.5,333.5C 559.662,339.151 562.662,344.317 566.5,349C 568.025,350.009 569.692,350.509 571.5,350.5C 572.167,351.167 572.833,351.833 573.5,352.5C 572.167,354.5 570.5,356.167 568.5,357.5C 567.566,356.432 567.232,355.099 567.5,353.5C 565.265,353.205 563.265,353.539 561.5,354.5C 559.236,355.219 556.903,355.552 554.5,355.5C 551.68,355.913 549.68,354.913 548.5,352.5C 552.418,351.689 556.418,350.689 560.5,349.5C 560.167,347.833 559.167,346.833 557.5,346.5C 548.858,348.657 540.191,348.991 531.5,347.5C 529.485,346.076 527.152,345.41 524.5,345.5C 518.17,343.503 512.17,340.67 506.5,337C 478.043,311.8 473.876,282.967 494,250.5C 517.875,224.81 545.375,220.31 576.5,237C 605.432,260.566 610.932,288.733 593,321.5C 591.855,322.684 590.688,322.684 589.5,321.5 Z"/></g>
<g><path style="opacity:0.502" fill="#3f382b" d="M 617.5,295.5 C 616.833,290.167 616.167,284.833 615.5,279.5C 610.8,248.289 593.466,227.455 563.5,217C 548.113,213.535 532.78,213.701 517.5,217.5C 543.856,208.458 568.189,212.458 590.5,229.5C 610.401,246.835 619.401,268.835 617.5,295.5 Z"/></g>
<g><path style="opacity:0.137" fill="#342e24" d="M 517.5,217.5 C 497.604,226.228 483.104,240.562 474,260.5C 471.281,267.594 469.781,274.927 469.5,282.5C 468.833,281.167 468.167,279.833 467.5,278.5C 468.394,274.532 469.227,270.532 470,266.5C 473.491,257.522 477.491,248.856 482,240.5C 486.882,237.286 490.715,233.119 493.5,228C 500.404,225.215 507.071,221.881 513.5,218C 514.793,217.51 516.127,217.343 517.5,217.5 Z"/></g>
<g><path style="opacity:1" fill="#ceb563" d="M 615.5,279.5 C 615.5,285.5 615.5,291.5 615.5,297.5C 614.135,307.343 610.801,316.343 605.5,324.5C 604.094,324.027 603.427,323.027 603.5,321.5C 606.846,314.47 609.346,307.137 611,299.5C 614.863,262.062 599.363,236.229 564.5,222C 528.559,212.419 500.726,223.252 481,254.5C 468.632,282.183 471.466,308.183 489.5,332.5C 489.751,334.17 490.418,335.67 491.5,337C 490.906,337.464 490.239,337.631 489.5,337.5C 477.458,325.407 470.791,310.74 469.5,293.5C 469.5,289.833 469.5,286.167 469.5,282.5C 469.781,274.927 471.281,267.594 474,260.5C 483.104,240.562 497.604,226.228 517.5,217.5C 532.78,213.701 548.113,213.535 563.5,217C 593.466,227.455 610.8,248.289 615.5,279.5 Z"/></g>
<g><path style="opacity:1" fill="#484848" d="M 563.5,252.5 C 559.629,252.185 555.962,252.518 552.5,253.5C 551.624,253.631 550.957,253.298 550.5,252.5C 554.984,251.189 559.317,251.189 563.5,252.5 Z"/></g>
<g><path style="opacity:1" fill="#f3f3f3" d="M 552.5,253.5 C 555.962,252.518 559.629,252.185 563.5,252.5C 571.895,252.944 578.395,256.611 583,263.5C 585.395,274.035 581.895,281.702 572.5,286.5C 570.597,286.796 568.93,287.463 567.5,288.5C 566.022,288.238 564.689,288.571 563.5,289.5C 565.045,290.452 566.712,290.785 568.5,290.5C 571.401,291.536 573.901,293.203 576,295.5C 580.258,304.351 584.758,313.017 589.5,321.5C 589.62,322.586 590.287,323.253 591.5,323.5C 593.935,321.721 594.935,322.387 594.5,325.5C 594.167,326.167 593.833,326.833 593.5,327.5C 586.134,330.065 579.967,328.399 575,322.5C 571,313.833 567,305.167 563,296.5C 561.669,294.004 559.836,292.004 557.5,290.5C 555.5,289.833 553.5,289.167 551.5,288.5C 557.296,288.361 562.463,286.361 567,282.5C 575.047,266.106 570.214,256.44 552.5,253.5 Z"/></g>
<g><path style="opacity:1" fill="#dfc163" d="M 572.5,336.5 C 572.756,338.792 572.423,340.959 571.5,343C 568.294,343.89 565.294,343.557 562.5,342C 564.1,340.029 564.266,338.196 563,336.5C 562.586,336.957 562.086,337.291 561.5,337.5C 561.419,335.367 560.919,333.367 560,331.5C 559.583,332.756 558.75,333.423 557.5,333.5C 550.759,321.02 544.259,308.353 538,295.5C 536.945,292.944 535.112,291.277 532.5,290.5C 531.081,289.549 529.415,289.216 527.5,289.5C 527.172,300.346 527.506,311.013 528.5,321.5C 524.366,322.485 520.032,322.818 515.5,322.5C 515.831,299.994 515.497,277.66 514.5,255.5C 512.302,254.835 509.969,254.168 507.5,253.5C 519.486,252.334 531.486,252.167 543.5,253C 548.718,254.186 553.218,256.686 557,260.5C 561.899,275.364 556.732,285.03 541.5,289.5C 544.774,290.47 547.774,291.97 550.5,294C 558.059,308.057 565.392,322.223 572.5,336.5 Z"/></g>
<g><path style="opacity:1" fill="#040302" d="M 535.5,255.5 C 543.306,257.153 546.639,261.987 545.5,270C 546.394,278.748 542.728,284.248 534.5,286.5C 532.5,286.5 530.5,286.5 528.5,286.5C 528.5,276.167 528.5,265.833 528.5,255.5C 530.833,255.5 533.167,255.5 535.5,255.5 Z"/></g>
<g><path style="opacity:1" fill="#54492b" d="M 535.5,255.5 C 533.167,255.5 530.833,255.5 528.5,255.5C 528.5,265.833 528.5,276.167 528.5,286.5C 530.5,286.5 532.5,286.5 534.5,286.5C 532.393,287.468 530.059,287.802 527.5,287.5C 527.5,276.5 527.5,265.5 527.5,254.5C 530.385,254.194 533.052,254.527 535.5,255.5 Z"/></g>
<g><path style="opacity:0.078" fill="#69655a" d="M 467.5,278.5 C 468.167,279.833 468.833,281.167 469.5,282.5C 469.5,286.167 469.5,289.833 469.5,293.5C 468.833,294.5 468.167,295.5 467.5,296.5C 467.5,290.5 467.5,284.5 467.5,278.5 Z"/></g>
<g><path style="opacity:0.663" fill="#6e623f" d="M 615.5,279.5 C 616.167,284.833 616.833,290.167 617.5,295.5C 617.5,296.5 617.5,297.5 617.5,298.5C 616.833,298.167 616.167,297.833 615.5,297.5C 615.5,291.5 615.5,285.5 615.5,279.5 Z"/></g>
<g><path style="opacity:1" fill="#575757" d="M 572.5,286.5 C 571.365,288.213 569.698,288.88 567.5,288.5C 568.93,287.463 570.597,286.796 572.5,286.5 Z"/></g>
<g><path style="opacity:1" fill="#969595" d="M 551.5,288.5 C 553.5,289.167 555.5,289.833 557.5,290.5C 554.753,290.813 552.086,290.48 549.5,289.5C 549.957,288.702 550.624,288.369 551.5,288.5 Z"/></g>
<g><path style="opacity:1" fill="#8c8c8c" d="M 567.5,288.5 C 567.833,289.167 568.167,289.833 568.5,290.5C 566.712,290.785 565.045,290.452 563.5,289.5C 564.689,288.571 566.022,288.238 567.5,288.5 Z"/></g>
<g><path style="opacity:1" fill="#504726" d="M 532.5,290.5 C 531.167,290.5 529.833,290.5 528.5,290.5C 528.5,300.5 528.5,310.5 528.5,320.5C 531.059,320.198 533.393,320.532 535.5,321.5C 533.167,321.5 530.833,321.5 528.5,321.5C 527.506,311.013 527.172,300.346 527.5,289.5C 529.415,289.216 531.081,289.549 532.5,290.5 Z"/></g>
<g><path style="opacity:0.094" fill="#3f3729" d="M 615.5,297.5 C 616.167,297.833 616.833,298.167 617.5,298.5C 616.008,303.799 614.508,309.132 613,314.5C 609.426,321.648 605.926,328.648 602.5,335.5C 602.5,334.167 602.5,332.833 602.5,331.5C 603.758,329.313 604.758,326.98 605.5,324.5C 610.801,316.343 614.135,307.343 615.5,297.5 Z"/></g>
<g><path style="opacity:1" fill="#ac985a" d="M 514.5,255.5 C 515.497,277.66 515.831,299.994 515.5,322.5C 520.032,322.818 524.366,322.485 528.5,321.5C 530.833,321.5 533.167,321.5 535.5,321.5C 526.56,323.472 517.227,324.139 507.5,323.5C 507.5,322.5 507.5,321.5 507.5,320.5C 509.833,320.5 512.167,320.5 514.5,320.5C 514.5,298.833 514.5,277.167 514.5,255.5 Z"/></g>
<g><path style="opacity:0.562" fill="#131211" d="M 602.5,331.5 C 602.5,332.833 602.5,334.167 602.5,335.5C 602.19,337.144 601.19,338.144 599.5,338.5C 598.508,338.672 597.842,338.338 597.5,337.5C 598.419,334.911 600.086,332.911 602.5,331.5 Z"/></g>
<g><path style="opacity:1" fill="#bca454" d="M 603.5,321.5 C 603.427,323.027 604.094,324.027 605.5,324.5C 604.758,326.98 603.758,329.313 602.5,331.5C 600.086,332.911 598.419,334.911 597.5,337.5C 592.707,341.121 588.04,344.954 583.5,349C 579.637,350.354 575.637,350.854 571.5,350.5C 569.692,350.509 568.025,350.009 566.5,349C 562.662,344.317 559.662,339.151 557.5,333.5C 558.75,333.423 559.583,332.756 560,331.5C 560.919,333.367 561.419,335.367 561.5,337.5C 562.086,337.291 562.586,336.957 563,336.5C 564.266,338.196 564.1,340.029 562.5,342C 565.294,343.557 568.294,343.89 571.5,343C 572.423,340.959 572.756,338.792 572.5,336.5C 574.588,338.336 575.921,340.669 576.5,343.5C 574.402,342.086 573.402,342.752 573.5,345.5C 570.86,343.992 568.527,344.326 566.5,346.5C 566.709,347.086 567.043,347.586 567.5,348C 572.95,348.755 578.283,348.255 583.5,346.5C 581.709,345.83 580.042,345.163 578.5,344.5C 580.199,344.66 581.866,344.494 583.5,344C 589.375,339.626 594.375,334.459 598.5,328.5C 599.921,325.991 601.588,323.657 603.5,321.5 Z"/></g>
<g><path style="opacity:1" fill="#caad49" d="M 576.5,343.5 C 577.167,343.833 577.833,344.167 578.5,344.5C 580.042,345.163 581.709,345.83 583.5,346.5C 578.283,348.255 572.95,348.755 567.5,348C 567.043,347.586 566.709,347.086 566.5,346.5C 568.527,344.326 570.86,343.992 573.5,345.5C 573.402,342.752 574.402,342.086 576.5,343.5 Z"/></g>
<g><path style="opacity:0.388" fill="#413a2b" d="M 469.5,293.5 C 470.791,310.74 477.458,325.407 489.5,337.5C 506.333,356.17 527.333,363.67 552.5,360C 557.474,359.964 562.141,358.798 566.5,356.5C 565.332,354.783 563.665,354.116 561.5,354.5C 563.265,353.539 565.265,353.205 567.5,353.5C 567.232,355.099 567.566,356.432 568.5,357.5C 536.928,368.265 509.428,361.598 486,337.5C 476.077,325.578 469.91,311.912 467.5,296.5C 468.167,295.5 468.833,294.5 469.5,293.5 Z"/></g>
<g><path style="opacity:1" fill="#484848" d="M 524.5,345.5 C 527.152,345.41 529.485,346.076 531.5,347.5C 528.848,347.59 526.515,346.924 524.5,345.5 Z"/></g>
<g><path style="opacity:0.082" fill="#3a3328" d="M 597.5,337.5 C 597.842,338.338 598.508,338.672 599.5,338.5C 593.988,343.493 587.988,347.993 581.5,352C 578.854,352.497 576.187,352.664 573.5,352.5C 572.833,351.833 572.167,351.167 571.5,350.5C 575.637,350.854 579.637,350.354 583.5,349C 588.04,344.954 592.707,341.121 597.5,337.5 Z"/></g>
<g><path style="opacity:0.999" fill="#b7a14a" d="M 489.5,332.5 C 506.926,352.308 528.592,359.974 554.5,355.5C 556.903,355.552 559.236,355.219 561.5,354.5C 563.665,354.116 565.332,354.783 566.5,356.5C 562.141,358.798 557.474,359.964 552.5,360C 527.333,363.67 506.333,356.17 489.5,337.5C 490.239,337.631 490.906,337.464 491.5,337C 490.418,335.67 489.751,334.17 489.5,332.5 Z"/></g>
</svg>
