<svg xmlns="http://www.w3.org/2000/svg" width="158" height="162" viewBox="0 0 158 162" version="1.1"><path d="M 63.007 8.620 C 59.435 9.400, 52.295 12.091, 47.138 14.599 C 39.195 18.463, 36.354 20.569, 28.533 28.390 C 20.929 35.994, 18.497 39.229, 14.733 46.748 C 8.428 59.344, 6.646 68.015, 7.218 83.330 C 7.585 93.151, 8.200 97.044, 10.402 103.500 C 21.484 135.979, 54.296 156.831, 88.251 152.973 C 98.975 151.754, 104.246 150.017, 103.057 148.092 C 102.311 146.885, 101.294 146.885, 95.844 148.093 C 85.879 150.303, 69.977 149.860, 61 147.123 C 37.240 139.880, 18.968 120.824, 12.457 96.500 C 10.345 88.608, 10.353 71.491, 12.472 63.500 C 20.798 32.105, 47.945 11, 80 11 C 96.175 11, 109.831 15.588, 122.090 25.143 C 154.995 50.788, 158.874 97.188, 130.659 127.644 C 123.249 135.643, 118.822 138.510, 116.117 137.063 C 114.253 136.065, 103.574 117.187, 93.675 97.389 C 89.083 88.206, 84.470 83, 80.923 83 C 77.521 83, 78.866 81.517, 83.883 79.735 C 94.169 76.082, 99.198 66.044, 95.541 56.469 C 92.004 47.207, 85.514 45, 61.818 45 C 52.031 45, 45 45.392, 45 45.937 C 45 46.452, 46.462 47.014, 48.250 47.187 L 51.500 47.500 51.500 80.500 L 51.500 113.500 48.250 113.813 C 46.462 113.986, 45 114.548, 45 115.063 C 45 115.601, 50.965 116, 59 116 C 67.067 116, 73 115.602, 73 115.060 C 73 114.544, 71.313 113.981, 69.250 113.810 L 65.500 113.500 65.224 98.250 L 64.948 83 68.352 83 C 70.223 83, 72.310 83.669, 72.988 84.486 C 73.667 85.303, 78.924 95.316, 84.671 106.736 C 102.402 141.971, 103.213 143, 113.254 143 C 119.584 143, 123.090 140.876, 132.513 131.333 C 146.640 117.027, 153.169 100.853, 153.236 80 C 153.301 59.598, 146.510 43.462, 131.508 28.378 C 123.769 20.597, 121.033 18.574, 112.888 14.612 C 107.636 12.057, 100.225 9.307, 96.419 8.501 C 87.827 6.680, 71.618 6.738, 63.007 8.620 M 70.531 16.113 C 46.398 19.628, 25.972 36.975, 18.354 60.422 C 16.251 66.896, 15.708 70.585, 15.624 79 C 15.498 91.500, 16.853 97.662, 22.199 108.891 C 27.843 120.747, 39.051 132.026, 51 137.875 C 64.432 144.450, 77.436 146.376, 91.668 143.897 C 98.151 142.768, 98.586 142.472, 97.128 140.173 C 96.455 139.112, 95.118 139.062, 90.460 139.923 C 77.957 142.234, 65.238 140.344, 53 134.357 C 42.412 129.177, 30.629 117.346, 25.753 107 C 20.968 96.846, 19.524 90.251, 19.623 79 C 19.758 63.802, 24.943 50.694, 35.308 39.353 C 52.031 21.056, 78.414 14.774, 101.713 23.544 C 130.737 34.469, 147.167 67.494, 138.351 97.191 C 136.537 103.301, 131.573 113.528, 129.926 114.545 C 128.064 115.696, 125.800 112.520, 119 99.216 C 112.810 87.107, 112.267 86.384, 107.612 84.077 L 102.724 81.655 106.890 80.425 C 115.921 77.758, 121 71.214, 121 62.247 C 121 56, 118.086 51.419, 111.961 48.036 C 108.281 46.004, 105.837 45.516, 98 45.248 C 89.181 44.948, 88.679 45.032, 91 46.427 C 92.375 47.253, 94.760 47.945, 96.300 47.965 C 103.722 48.059, 107.533 53.387, 107.411 63.500 C 107.292 73.312, 103.686 78.160, 95.500 79.513 C 89.585 80.491, 88 81.031, 88 82.067 C 88 82.580, 89.777 83, 91.949 83 C 97.035 83, 98.914 85.459, 106.087 101.500 C 109.038 108.100, 112.861 115.042, 114.581 116.926 C 117.338 119.944, 118.420 120.403, 123.676 120.783 C 129.405 121.197, 129.750 121.085, 132.382 117.958 C 142.430 106.016, 147.054 85.353, 143.572 67.954 C 138.065 40.443, 116.340 19.935, 88.616 16.079 C 79.967 14.877, 79.010 14.878, 70.531 16.113 M 65 64.139 L 65 80.279 70.126 79.671 C 79.787 78.527, 83 74.100, 83 61.932 C 83 55.154, 82.831 54.631, 79.600 51.400 C 76.543 48.343, 75.635 48, 70.600 48 L 65 48 65 64.139" stroke="none" fill="#decc95" fill-rule="evenodd"/><path d="M 64.160 7.184 C 57.548 8.661, 59.952 9.307, 66.942 7.932 C 70.668 7.199, 77.677 6.911, 84.789 7.200 C 91.230 7.462, 95.375 7.344, 94 6.938 C 90.385 5.870, 69.261 6.044, 64.160 7.184 M 103.043 10.262 C 115.482 14.825, 122.097 19.055, 131.532 28.479 C 141.596 38.532, 146.809 47.125, 150.654 60 C 153.107 68.216, 153.816 67.656, 151.583 59.267 C 149.822 52.653, 143.348 39.477, 139.914 35.519 C 138.473 33.859, 137.116 31.972, 136.897 31.327 C 136.679 30.682, 133.125 27.395, 129 24.021 C 121.074 17.540, 105.874 9.364, 100 8.422 C 97.741 8.060, 98.821 8.713, 103.043 10.262 M 53.457 10.326 C 51.783 10.972, 46.966 13.412, 42.754 15.750 C 38.541 18.087, 34.468 20, 33.702 20 C 32.103 20, 29 23.131, 29 24.745 C 29 25.343, 27.298 27.180, 25.219 28.827 C 20.340 32.691, 10.656 51.116, 7.956 61.670 C 5.279 72.141, 5.301 87.946, 8.008 98.532 C 17.594 136.013, 56.204 161.016, 92.988 153.563 C 102.415 151.652, 105.432 150.334, 108.924 146.595 C 110.630 144.769, 112.374 144, 114.806 144 C 118.776 144, 123.514 141.394, 130.127 135.573 C 132.672 133.333, 135.935 130.691, 137.377 129.703 C 138.820 128.715, 140 127.193, 140 126.321 C 140 125.449, 140.926 123.108, 142.058 121.118 C 143.492 118.596, 143.568 118.246, 142.308 119.963 C 136.918 127.307, 126.966 137.297, 121.027 141.323 C 117.774 143.530, 108.739 143.549, 105.029 141.358 C 101.593 139.328, 97.983 133.189, 84.671 106.736 C 78.924 95.316, 73.667 85.303, 72.988 84.486 C 72.310 83.669, 70.223 83, 68.352 83 L 64.948 83 65.224 98.250 L 65.500 113.500 69.250 113.810 C 71.313 113.981, 73 114.544, 73 115.060 C 73 115.602, 67.067 116, 59 116 C 50.965 116, 45 115.601, 45 115.063 C 45 114.548, 46.462 113.986, 48.250 113.813 L 51.500 113.500 51.500 80.500 L 51.500 47.500 48.250 47.187 C 46.462 47.014, 45 46.452, 45 45.937 C 45 45.392, 52.031 45, 61.818 45 C 85.514 45, 92.004 47.207, 95.541 56.469 C 99.198 66.044, 94.169 76.082, 83.883 79.735 C 78.866 81.517, 77.521 83, 80.923 83 C 84.470 83, 89.083 88.206, 93.675 97.389 C 103.574 117.187, 114.253 136.065, 116.117 137.063 C 118.822 138.510, 123.249 135.643, 130.659 127.644 C 158.874 97.188, 154.995 50.788, 122.090 25.143 C 109.831 15.588, 96.175 11, 80 11 C 47.945 11, 20.798 32.105, 12.472 63.500 C 10.353 71.491, 10.345 88.608, 12.457 96.500 C 18.968 120.824, 37.240 139.880, 61 147.123 C 69.977 149.860, 85.879 150.303, 95.844 148.093 C 101.294 146.885, 102.311 146.885, 103.057 148.092 C 104.246 150.017, 98.975 151.754, 88.251 152.973 C 54.296 156.831, 21.484 135.979, 10.402 103.500 C 6.771 92.856, 5.906 75.016, 8.464 63.517 C 11.232 51.076, 17.769 39.320, 27.330 29.589 C 36.723 20.030, 40.681 17.240, 51.624 12.463 C 58.947 9.266, 60.302 7.686, 53.457 10.326 M 70.531 16.113 C 46.398 19.628, 25.972 36.975, 18.354 60.422 C 16.251 66.896, 15.708 70.585, 15.624 79 C 15.498 91.500, 16.853 97.662, 22.199 108.891 C 27.843 120.747, 39.051 132.026, 51 137.875 C 64.432 144.450, 77.436 146.376, 91.668 143.897 C 98.151 142.768, 98.586 142.472, 97.128 140.173 C 96.455 139.112, 95.118 139.062, 90.460 139.923 C 77.957 142.234, 65.238 140.344, 53 134.357 C 42.412 129.177, 30.629 117.346, 25.753 107 C 20.968 96.846, 19.524 90.251, 19.623 79 C 19.758 63.802, 24.943 50.694, 35.308 39.353 C 52.031 21.056, 78.414 14.774, 101.713 23.544 C 130.737 34.469, 147.167 67.494, 138.351 97.191 C 136.537 103.301, 131.573 113.528, 129.926 114.545 C 128.064 115.696, 125.800 112.520, 119 99.216 C 112.810 87.107, 112.267 86.384, 107.612 84.077 L 102.724 81.655 106.890 80.425 C 115.921 77.758, 121 71.214, 121 62.247 C 121 56, 118.086 51.419, 111.961 48.036 C 108.281 46.004, 105.837 45.516, 98 45.248 C 89.181 44.948, 88.679 45.032, 91 46.427 C 92.375 47.253, 94.760 47.945, 96.300 47.965 C 103.722 48.059, 107.533 53.387, 107.411 63.500 C 107.292 73.312, 103.686 78.160, 95.500 79.513 C 89.585 80.491, 88 81.031, 88 82.067 C 88 82.580, 89.777 83, 91.949 83 C 97.035 83, 98.914 85.459, 106.087 101.500 C 109.038 108.100, 112.861 115.042, 114.581 116.926 C 117.338 119.944, 118.420 120.403, 123.676 120.783 C 129.405 121.197, 129.750 121.085, 132.382 117.958 C 142.430 106.016, 147.054 85.353, 143.572 67.954 C 138.065 40.443, 116.340 19.935, 88.616 16.079 C 79.967 14.877, 79.010 14.878, 70.531 16.113 M 65 64.139 L 65 80.279 70.126 79.671 C 79.787 78.527, 83 74.100, 83 61.932 C 83 55.154, 82.831 54.631, 79.600 51.400 C 76.543 48.343, 75.635 48, 70.600 48 L 65 48 65 64.139 M 153.464 73.994 C 153.989 82.731, 152.398 95.918, 149.993 102.761 C 147.735 109.186, 147.974 111.021, 150.309 105.186 C 154.087 95.743, 155.960 77.750, 153.919 70.500 C 153.308 68.331, 153.182 69.298, 153.464 73.994" stroke="none" fill="#0f0e0b" fill-rule="evenodd"/></svg>